<svg version="1.1" id="Layer_1" xmlns="http://www.w3.org/2000/svg" xmlns:xlink="http://www.w3.org/1999/xlink" x="0px" y="0px"
	 width="720px" height="720px" viewBox="0 0 720 720" style="enable-background:new 0 0 720 720;" xml:space="preserve">
<g>
	<path style="display:none;fill-rule:evenodd;clip-rule:evenodd;" d="M534.067,360.521c-1.01,1.106-1.62,1.833-2.289,2.5
		c-56.276,56.129-112.557,112.254-168.849,168.367c-0.205,0.205-0.567,0.252-1.036,0.447c-0.418-0.316-0.968-0.638-1.404-1.073
		C303.816,474.152,247.151,417.533,190.45,360.88c0.687-1.95,2.142-3.004,3.352-4.208c11.901-11.845,23.861-23.631,35.74-35.498
		c43.107-43.065,86.188-86.156,129.286-129.23c0.989-0.989,2.059-1.897,3.183-2.928c0.988,0.803,1.78,1.337,2.443,2
		C420.897,247.409,477.33,303.813,534.067,360.521z M362.174,271.586c-0.402,0.145-0.967,0.18-1.268,0.48
		c-28.802,28.662-57.585,57.342-86.356,86.036c-0.658,0.656-1.156,1.474-1.671,2.142c0.459,2.274,2.204,3.328,3.518,4.647
		c13.663,13.716,27.368,27.389,41.059,41.076c13.125,13.121,26.237,26.256,39.385,39.354c1.56,1.554,2.916,3.409,5.193,4.289
		c1.891-0.71,3.048-2.294,4.379-3.623c13.139-13.108,26.256-26.239,39.38-39.362c14.029-14.028,28.068-28.048,42.078-42.096
		c1.213-1.216,2.791-2.196,3.232-4.383c-0.823-0.947-1.699-2.073-2.691-3.083C412.34,320.338,365.601,274.014,362.174,271.586z"/>
	<g class="lower-logo">
		<path style="fill-rule:evenodd;clip-rule:evenodd;fill:#0A8271;" d="M534.838,445.813c-9.821-9.822-19.521-19.523-29.412-29.418
			c-1.056,0.844-1.958,1.435-2.705,2.182c-27.619,27.588-55.224,55.189-82.83,82.79c-17.536,17.534-35.064,35.076-52.622,52.588
			c-1.33,1.327-2.42,3.011-4.383,3.567c-2.054-0.479-3.178-2.144-4.514-3.476c-15.519-15.479-31.011-30.982-46.513-46.479
			c-29.191-29.183-58.381-58.364-87.58-87.538c-1.107-1.105-2.301-2.125-3.629-3.345c-3.941,2.991-6.941,6.519-10.238,9.714
			c-3.217,3.117-6.359,6.311-9.499,9.504c-3.237,3.293-6.677,6.397-9.751,9.967c0.496,0.712,0.786,1.295,1.223,1.73
			c56.426,56.464,112.861,112.916,169.31,169.357c0.32,0.321,0.812,0.472,1.2,0.69c3.724-2.832,155.343-153.903,170.001-169.394
			C533.533,447.581,534.059,446.8,534.838,445.813z"/>
		<path style="fill-rule:evenodd;clip-rule:evenodd;fill:#0B8C7B;" d="M362.886,557.522c-2.054-0.479-3.178-2.144-4.514-3.476
			c-15.519-15.479-31.011-30.982-46.513-46.479c-29.191-29.183-58.381-58.364-87.58-87.538c-1.107-1.105-2.301-2.125-3.629-3.345
			c-3.941,2.991-6.941,6.519-10.238,9.714c-3.217,3.117-6.359,6.311-9.499,9.504c-3.237,3.293-6.677,6.397-9.751,9.967
			c0.496,0.712,0.786,1.295,1.223,1.73c56.426,56.464,112.861,112.916,169.31,169.357c0.32,0.321,0.812,0.472,1.2,0.69"/>
	</g>
	<g class="upper-logo">
		<path style="fill-rule:evenodd;clip-rule:evenodd;fill:#0A8271;" d="M534.027,277.105c-9.821,9.822-19.521,19.523-29.412,29.418
			c-1.056-0.844-1.958-1.435-2.705-2.182c-27.619-27.588-55.224-55.189-82.83-82.791c-17.536-17.534-35.064-35.076-52.622-52.588
			c-1.33-1.327-2.42-3.01-4.383-3.567c-2.054,0.48-3.178,2.143-4.514,3.476c-15.519,15.478-31.011,30.983-46.513,46.479
			c-29.191,29.182-58.381,58.364-87.581,87.538c-1.106,1.105-2.3,2.125-3.628,3.345c-3.941-2.991-6.942-6.519-10.239-9.714
			c-3.216-3.117-6.358-6.311-9.499-9.504c-3.238-3.293-6.677-6.397-9.751-9.967c0.497-0.712,0.787-1.295,1.223-1.73
			C248,218.855,304.436,162.402,360.884,105.961c0.32-0.321,0.812-0.472,1.2-0.69c3.724,2.832,155.343,153.903,170.001,169.394
			C532.723,275.338,533.248,276.119,534.027,277.105z"/>
		<path style="fill-rule:evenodd;clip-rule:evenodd;fill:#0B8C7B;" d="M362.075,165.396c-2.054,0.48-3.178,2.143-4.514,3.476
			c-15.519,15.478-31.011,30.983-46.513,46.479c-29.191,29.182-58.381,58.364-87.581,87.538c-1.106,1.105-2.3,2.124-3.628,3.344
			c-3.941-2.992-6.942-6.519-10.239-9.714c-3.216-3.117-6.358-6.311-9.499-9.504c-3.238-3.293-6.677-6.397-9.751-9.966
			c0.497-0.712,0.787-1.295,1.223-1.731C248,218.855,304.436,162.402,360.884,105.961c0.32-0.321,0.812-0.472,1.2-0.69"/>
	</g>
</g>
<path style="fill:#0B8C7B;" d="M356.841,443.557c-13.148-13.099-26.261-26.233-39.386-39.354
	c-13.69-13.688-27.396-27.36-41.059-41.076c-1.313-1.319-3.059-2.373-3.518-4.647c0.516-0.668,1.014-1.485,1.672-2.142
	c27.915-27.841,55.845-55.668,83.79-83.479v-82.192c-42.935,42.912-85.854,85.84-128.798,128.743
	c-11.879,11.867-23.84,23.653-35.74,35.498c-1.211,1.205-2.666,2.259-3.353,4.209c55.985,55.938,111.935,111.841,167.891,167.735
	v-81.725C357.837,444.6,357.349,444.062,356.841,443.557z"/>
<path style="fill:#0A8271;" d="M359.5,443.557c13.148-13.099,26.261-26.233,39.386-39.354c13.69-13.688,27.396-27.36,41.059-41.076
	c1.313-1.319,3.059-2.373,3.518-4.647c-0.516-0.668-1.014-1.485-1.672-2.142c-27.915-27.841-55.845-55.668-83.79-83.479v-82.192
	c42.935,42.912,85.854,85.84,128.798,128.743c11.879,11.867,23.84,23.653,35.74,35.498c1.211,1.205,2.666,2.259,3.353,4.209
	C469.905,415.053,413.956,470.956,358,526.851v-81.725C358.504,444.6,358.992,444.062,359.5,443.557z"/>
<g id="COCOON">
	<g class="cocoon-text">
		<path style="fill:none;stroke:#FFFFFF;stroke-miterlimit:10;" d="M87.706,409.641c-4.864,3.565-11.46,5.74-19.796,6.522
			c-0.957,0.085-1.998,0.149-3.125,0.195c-1.129,0.04-2.301,0.065-3.516,0.065c-14.067,0-25.528-4.438-34.384-13.312
			c-8.944-8.959-13.416-20.485-13.416-34.581c0-14.091,4.429-25.574,13.285-34.448c8.941-8.959,20.447-13.441,34.515-13.441
			c7.987,0,15.193,1.174,21.62,3.523c3.819,1.481,7.509,3.61,11.071,6.395v6.653c-3.647-3.044-7.641-5.48-11.981-7.307
			c-6.6-2.694-13.501-4.047-20.708-4.047c-12.33,0-22.489,4.004-30.477,12.005c-7.989,8.004-11.981,18.227-11.981,30.667
			c0,12.44,3.95,22.62,11.853,30.536c7.988,8.003,18.188,12.005,30.607,12.005c7.728,0,14.456-1.393,20.188-4.174
			c3.299-1.654,7.467-4.309,12.504-7.962v6.133L87.706,409.641z"/>
		<path style="fill:none;stroke:#FFFFFF;stroke-miterlimit:10;" d="M218.989,402.985c-8.945,8.96-20.448,13.442-34.514,13.442
			c-14.068,0-25.529-4.44-34.384-13.312c-8.945-8.959-13.416-20.485-13.416-34.581c0-14.093,4.428-25.574,13.284-34.448
			c8.943-8.959,20.448-13.441,34.516-13.441c13.979,0,25.481,4.437,34.514,13.311c8.943,8.959,13.416,20.486,13.416,34.579
			C232.405,382.627,227.932,394.113,218.989,402.985z M215.214,337.868c-7.991-8.001-18.233-12.005-30.737-12.005
			c-12.329,0-22.49,4.003-30.477,12.005c-7.989,8.006-11.982,18.226-11.982,30.667c0,12.44,3.949,22.62,11.852,30.534
			c7.988,8.004,18.188,12.006,30.608,12.006c12.502,0,22.746-3.914,30.736-11.743c7.901-7.915,11.852-18.182,11.852-30.797
			C227.065,356.007,223.114,345.785,215.214,337.868z"/>
		<path style="fill:none;stroke:#FFFFFF;stroke-miterlimit:10;" d="M338.809,409.641c-4.863,3.565-11.46,5.74-19.796,6.522
			c-0.957,0.085-1.998,0.149-3.125,0.195c-1.127,0.04-2.3,0.065-3.516,0.065c-14.065,0-25.527-4.438-34.383-13.312
			c-8.944-8.959-13.416-20.485-13.416-34.581c0-14.091,4.428-25.574,13.286-34.448c8.94-8.959,20.448-13.441,34.513-13.441
			c7.987,0,15.195,1.174,21.62,3.523c3.82,1.481,7.509,3.61,11.071,6.395v6.653c-3.647-3.044-7.641-5.48-11.981-7.307
			c-6.599-2.694-13.501-4.047-20.707-4.047c-12.329,0-22.488,4.004-30.477,12.005c-7.989,8.004-11.98,18.227-11.98,30.667
			c0,12.44,3.947,22.62,11.852,30.536c7.987,8.003,18.188,12.005,30.606,12.005c7.728,0,14.456-1.393,20.188-4.174
			c3.299-1.654,7.469-4.309,12.503-7.962v6.133L338.809,409.641z"/>
		<path style="fill:none;stroke:#FFFFFF;stroke-miterlimit:10;" d="M457.07,402.985c-8.945,8.96-20.449,13.442-34.518,13.442
			c-14.064,0-25.525-4.44-34.382-13.312c-8.941-8.959-13.414-20.485-13.414-34.581c0-14.093,4.426-25.574,13.286-34.448
			c8.941-8.959,20.445-13.441,34.514-13.441c13.98,0,25.481,4.437,34.514,13.311c8.941,8.959,13.416,20.486,13.416,34.579
			C470.484,382.627,466.009,394.113,457.07,402.985z M453.289,337.868c-7.986-8.001-18.229-12.005-30.736-12.005
			c-12.331,0-22.486,4.003-30.473,12.005c-7.99,8.006-11.984,18.226-11.984,30.667c0,12.44,3.95,22.62,11.853,30.534
			c7.987,8.004,18.189,12.006,30.608,12.006c12.503,0,22.746-3.914,30.736-11.743c7.903-7.915,11.851-18.182,11.851-30.797
			C465.142,356.007,461.192,345.785,453.289,337.868z"/>
		<path style="fill:none;stroke:#FFFFFF;stroke-miterlimit:10;" d="M578.846,402.985c-8.945,8.96-20.45,13.442-34.518,13.442
			c-14.063,0-25.525-4.44-34.382-13.312c-8.942-8.959-13.415-20.485-13.415-34.581c0-14.093,4.427-25.574,13.286-34.448
			c8.942-8.959,20.447-13.441,34.514-13.441c13.98,0,25.482,4.437,34.515,13.311c8.942,8.959,13.417,20.486,13.417,34.579
			C592.258,382.627,587.783,394.113,578.846,402.985z M575.064,337.868c-7.986-8.001-18.229-12.005-30.736-12.005
			c-12.331,0-22.487,4.003-30.474,12.005c-7.991,8.006-11.983,18.226-11.983,30.667c0,12.44,3.949,22.62,11.852,30.534
			c7.988,8.004,18.19,12.006,30.608,12.006c12.505,0,22.747-3.914,30.736-11.743c7.902-7.915,11.853-18.182,11.853-30.797
			C586.915,356.007,582.967,345.785,575.064,337.868z"/>
		<path style="fill:none;stroke:#FFFFFF;stroke-miterlimit:10;" d="M630.551,336.041v79.08h-5.211v-93.827l69.42,81.558v-80.904
			h5.338v94.737L630.551,336.041z"/>
	</g>
</g>
	<style type="text/css">
		 .cocoon-text > path {
        stroke-dasharray: 800; 
        stroke-dashoffset: 800;
        display: inline;
        -webkit-animation: dash 2s .5s linear forwards;    
    }
		
		.reanimate {
			-webkit-animation: dash 2s .5s linear forwards;    
		}
  
    @-webkit-keyframes dash {
            0% {
                display: inline;
                stroke-dashoffset: 800;
								fill: rgba(255,255,255,0)
            }
			
						50%  {
											fill: rgba(255,255,255,0.8)
									}
			
						85%  {
								fill: rgba(255,255,255,0.8)
						}
			
            100% {    
                    
                	fill: #ffffff;  
									stroke-dashoffset: 0;
                }

        }
		
		.lower-logo {
		opacity: 0;
		-webkit-transform: translate(-5px, -200px);
	animation-fill-mode: forwards;
	   animation-name: glide-down;
  animation-duration: 1s; 
  animation-timing-function: ease-in-out; 
  animation-delay: 0;
  
	}
	
	@-webkit-keyframes glide-down {
	 0% {
			opacity: 0;
			-webkit-transform: translate(-5px, -200px);
		}
	
	100% {
	 	opacity: 100;
	-webkit-transform: translate(-5px, 0px);
		}
	}
	
	.upper-logo {
		opacity: 0;
		-webkit-transform: translate(-5px, 200px);
	animation-fill-mode: forwards;
	   animation-name: glide-up;
  animation-duration: 1s; 
  animation-timing-function: ease-in-out; 
  animation-delay: 0;
  
	}
	
	@-webkit-keyframes glide-up {
	 0% {
			opacity: 0;
			-webkit-transform: translate(-5px, 200px);
		}
	
	100% {
	 	opacity: 100;
	-webkit-transform: translate(-5px, 0px);
		}
	}
	
	.mid-logo {
		opacity: 1;
		
	-webkit-transform-origin: 50% 50%;
	animation-fill-mode: forwards;
	   animation-name: rotate;
  animation-duration: 1s; 
  animation-timing-function: ease-in-out; 
  animation-delay: 0;
	}
	
	</style>
</svg>
